<mxfile host="app.diagrams.net" modified="2023-01-28T11:04:56.450Z" agent="5.0 (Windows NT 10.0; Win64; x64) AppleWebKit/537.36 (KHTML, like Gecko) Chrome/109.0.0.0 Safari/537.36" etag="XYUgltZLDrdW4lKQJBO2" version="20.8.13" type="github">
  <diagram id="C5RBs43oDa-KdzZeNtuy" name="Page-1">
    <mxGraphModel dx="1683" dy="452" grid="1" gridSize="10" guides="1" tooltips="1" connect="1" arrows="1" fold="1" page="1" pageScale="1" pageWidth="827" pageHeight="1169" math="0" shadow="0">
      <root>
        <mxCell id="WIyWlLk6GJQsqaUBKTNV-0" />
        <mxCell id="WIyWlLk6GJQsqaUBKTNV-1" parent="WIyWlLk6GJQsqaUBKTNV-0" />
        <mxCell id="UEDR2mS11VG6ZRyxsN1I-21" value="" style="edgeStyle=orthogonalEdgeStyle;rounded=0;orthogonalLoop=1;jettySize=auto;html=1;" edge="1" parent="WIyWlLk6GJQsqaUBKTNV-1" source="UEDR2mS11VG6ZRyxsN1I-0" target="UEDR2mS11VG6ZRyxsN1I-3">
          <mxGeometry relative="1" as="geometry" />
        </mxCell>
        <mxCell id="UEDR2mS11VG6ZRyxsN1I-0" value="Start" style="ellipse;whiteSpace=wrap;html=1;fontStyle=0;fillColor=#f8cecc;strokeColor=#b85450;" vertex="1" parent="WIyWlLk6GJQsqaUBKTNV-1">
          <mxGeometry x="160" y="40" width="120" height="80" as="geometry" />
        </mxCell>
        <mxCell id="UEDR2mS11VG6ZRyxsN1I-2" value="" style="edgeStyle=orthogonalEdgeStyle;rounded=0;orthogonalLoop=1;jettySize=auto;html=1;" edge="1" parent="WIyWlLk6GJQsqaUBKTNV-1">
          <mxGeometry relative="1" as="geometry">
            <mxPoint x="220" y="232" as="sourcePoint" />
            <mxPoint x="220" y="262" as="targetPoint" />
            <Array as="points">
              <mxPoint x="220" y="220" />
              <mxPoint x="220" y="220" />
            </Array>
          </mxGeometry>
        </mxCell>
        <mxCell id="UEDR2mS11VG6ZRyxsN1I-3" value="&lt;br&gt;&lt;span style=&quot;color: rgb(0, 0, 0); font-family: Helvetica; font-size: 12px; font-style: normal; font-variant-ligatures: normal; font-variant-caps: normal; font-weight: 400; letter-spacing: normal; orphans: 2; text-indent: 0px; text-transform: none; widows: 2; word-spacing: 0px; -webkit-text-stroke-width: 0px; background-color: rgb(251, 251, 251); text-decoration-thickness: initial; text-decoration-style: initial; text-decoration-color: initial; float: none; display: inline !important;&quot;&gt;Input : &lt;br&gt;numbers&lt;/span&gt;&lt;br&gt;" style="shape=parallelogram;perimeter=parallelogramPerimeter;whiteSpace=wrap;html=1;fixedSize=1;align=center;verticalAlign=top;fillColor=#e1d5e7;strokeColor=#9673a6;" vertex="1" parent="WIyWlLk6GJQsqaUBKTNV-1">
          <mxGeometry x="160" y="158" width="120" height="60" as="geometry" />
        </mxCell>
        <mxCell id="UEDR2mS11VG6ZRyxsN1I-4" value="Initializse sum equal&lt;br&gt;to 0" style="rounded=0;whiteSpace=wrap;html=1;fillColor=#dae8fc;strokeColor=#6c8ebf;" vertex="1" parent="WIyWlLk6GJQsqaUBKTNV-1">
          <mxGeometry x="160" y="262" width="120" height="60" as="geometry" />
        </mxCell>
        <mxCell id="UEDR2mS11VG6ZRyxsN1I-6" value="" style="edgeStyle=orthogonalEdgeStyle;rounded=0;orthogonalLoop=1;jettySize=auto;html=1;" edge="1" parent="WIyWlLk6GJQsqaUBKTNV-1">
          <mxGeometry relative="1" as="geometry">
            <mxPoint x="220" y="323" as="sourcePoint" />
            <mxPoint x="219.5" y="373" as="targetPoint" />
            <Array as="points">
              <mxPoint x="220" y="338" />
            </Array>
          </mxGeometry>
        </mxCell>
        <mxCell id="UEDR2mS11VG6ZRyxsN1I-7" value="for n in&lt;br&gt;numbers&amp;nbsp;" style="rhombus;whiteSpace=wrap;html=1;fillColor=#ffe6cc;strokeColor=#d79b00;" vertex="1" parent="WIyWlLk6GJQsqaUBKTNV-1">
          <mxGeometry x="180" y="373" width="80" height="80" as="geometry" />
        </mxCell>
        <mxCell id="UEDR2mS11VG6ZRyxsN1I-8" value="" style="edgeStyle=orthogonalEdgeStyle;rounded=0;orthogonalLoop=1;jettySize=auto;html=1;" edge="1" parent="WIyWlLk6GJQsqaUBKTNV-1">
          <mxGeometry relative="1" as="geometry">
            <mxPoint x="220" y="452" as="sourcePoint" />
            <mxPoint x="219.5" y="502" as="targetPoint" />
            <Array as="points">
              <mxPoint x="220" y="477" />
            </Array>
          </mxGeometry>
        </mxCell>
        <mxCell id="UEDR2mS11VG6ZRyxsN1I-9" value="True" style="text;html=1;align=center;verticalAlign=middle;resizable=0;points=[];autosize=1;strokeColor=none;fillColor=none;" vertex="1" parent="WIyWlLk6GJQsqaUBKTNV-1">
          <mxGeometry x="232" y="460" width="50" height="30" as="geometry" />
        </mxCell>
        <mxCell id="UEDR2mS11VG6ZRyxsN1I-10" value="sum = sum + n * n" style="rounded=0;whiteSpace=wrap;html=1;fillColor=#dae8fc;strokeColor=#6c8ebf;" vertex="1" parent="WIyWlLk6GJQsqaUBKTNV-1">
          <mxGeometry x="160" y="502" width="120" height="60" as="geometry" />
        </mxCell>
        <mxCell id="UEDR2mS11VG6ZRyxsN1I-12" value="" style="edgeStyle=orthogonalEdgeStyle;rounded=0;orthogonalLoop=1;jettySize=auto;html=1;" edge="1" parent="WIyWlLk6GJQsqaUBKTNV-1">
          <mxGeometry relative="1" as="geometry">
            <mxPoint x="220" y="562" as="sourcePoint" />
            <mxPoint x="220" y="602" as="targetPoint" />
            <Array as="points">
              <mxPoint x="220.5" y="592" />
              <mxPoint x="220.5" y="592" />
            </Array>
          </mxGeometry>
        </mxCell>
        <mxCell id="UEDR2mS11VG6ZRyxsN1I-13" value="Print sum" style="shape=parallelogram;perimeter=parallelogramPerimeter;whiteSpace=wrap;html=1;fixedSize=1;fillColor=#e1d5e7;strokeColor=#9673a6;" vertex="1" parent="WIyWlLk6GJQsqaUBKTNV-1">
          <mxGeometry x="160" y="601" width="120" height="60" as="geometry" />
        </mxCell>
        <mxCell id="UEDR2mS11VG6ZRyxsN1I-14" value="" style="edgeStyle=orthogonalEdgeStyle;rounded=0;orthogonalLoop=1;jettySize=auto;html=1;" edge="1" parent="WIyWlLk6GJQsqaUBKTNV-1">
          <mxGeometry relative="1" as="geometry">
            <mxPoint x="219" y="661" as="sourcePoint" />
            <mxPoint x="219" y="701" as="targetPoint" />
            <Array as="points">
              <mxPoint x="219.5" y="691" />
              <mxPoint x="219.5" y="691" />
            </Array>
          </mxGeometry>
        </mxCell>
        <mxCell id="UEDR2mS11VG6ZRyxsN1I-15" value="End" style="ellipse;whiteSpace=wrap;html=1;fillColor=#f8cecc;strokeColor=#b85450;" vertex="1" parent="WIyWlLk6GJQsqaUBKTNV-1">
          <mxGeometry x="160" y="701" width="120" height="80" as="geometry" />
        </mxCell>
        <mxCell id="UEDR2mS11VG6ZRyxsN1I-23" value="" style="strokeWidth=1;html=1;shape=mxgraph.flowchart.annotation_2;align=left;labelPosition=right;pointerEvents=1;rotation=-180;fontSize=6;dashed=1;" vertex="1" parent="WIyWlLk6GJQsqaUBKTNV-1">
          <mxGeometry x="35" y="318" width="50" height="66" as="geometry" />
        </mxCell>
        <mxCell id="UEDR2mS11VG6ZRyxsN1I-26" value="" style="edgeStyle=orthogonalEdgeStyle;rounded=0;orthogonalLoop=1;jettySize=auto;html=1;entryX=0.425;entryY=0.05;entryDx=0;entryDy=0;entryPerimeter=0;dashed=1;" edge="1" parent="WIyWlLk6GJQsqaUBKTNV-1">
          <mxGeometry relative="1" as="geometry">
            <mxPoint x="82" y="351" as="sourcePoint" />
            <mxPoint x="206" y="388" as="targetPoint" />
            <Array as="points">
              <mxPoint x="132" y="351" />
              <mxPoint x="132" y="388" />
            </Array>
          </mxGeometry>
        </mxCell>
        <mxCell id="UEDR2mS11VG6ZRyxsN1I-31" value="For Loop Condition&lt;div style=&quot;text-align: center; font-size: 12px;&quot;&gt;&lt;/div&gt;" style="text;whiteSpace=wrap;html=1;fontSize=12;fontStyle=1" vertex="1" parent="WIyWlLk6GJQsqaUBKTNV-1">
          <mxGeometry x="-60" y="342" width="140" height="50" as="geometry" />
        </mxCell>
      </root>
    </mxGraphModel>
  </diagram>
</mxfile>
